<svg xmlns="http://www.w3.org/2000/svg" fill="none" viewBox="50.45683622448979 38.4 367.6683673469388 1135.2" style="max-height: 500px" width="367.6683673469388" height="1135.2">
<path fill="#E1EAE6" d="M386.678 50C394.874 50 402.987 50.7348 411 52.1748V1164.65C402.987 1166.09 394.874 1166.83 386.678 1166.83C235.53 1166.83 113 916.819 113 608.415C113 300.011 235.53 50 386.678 50Z"/>
<rect fill="#A9C7BA" transform="rotate(-21.813 208.323 550.758)" rx="3.97633" height="43.2978" width="7.95266" y="550.758" x="208.323"/>
<rect fill="#A9C7BA" transform="rotate(-21.813 84.2903 602.356)" rx="3.97633" height="43.2978" width="7.95266" y="602.356" x="84.2903"/>
<path fill="#A9C7BA" d="M249.482 557.428C254.54 555.213 260.437 557.519 262.652 562.577L272.167 584.303L272.063 584.347L310.889 673.003C313.104 678.062 310.799 683.958 305.74 686.174L133.847 761.45C128.788 763.665 122.892 761.36 120.676 756.301L81.7624 667.443L81.8643 667.398L72.4396 645.876C70.2245 640.817 72.5297 634.92 77.5884 632.705L249.482 557.428Z"/>
<path fill="#3D7B61" d="M62.716 641.84C60.5006 636.781 62.8057 630.883 67.8647 628.668L239.757 553.392C244.816 551.177 250.713 553.482 252.929 558.541L262.443 580.266L72.2301 663.565L62.716 641.84Z"/>
<path fill="#FBFDFB" d="M72.0388 663.406L262.252 580.107L301.165 668.966C303.38 674.025 301.075 679.922 296.016 682.137L124.124 757.413C119.065 759.629 113.167 757.324 110.952 752.265L72.0388 663.406Z"/>
<rect stroke-width="2" stroke="#3D7B61" fill="#FBFDFB" transform="rotate(-21.813 81.3469 600.917)" rx="2.97633" height="41.2978" width="5.95266" y="600.917" x="81.3469"/>
<rect stroke-width="2" stroke="#3D7B61" fill="#FBFDFB" transform="rotate(-21.813 206.222 550.515)" rx="2.97633" height="41.2978" width="5.95266" y="550.515" x="206.222"/>
<rect fill="#D9D9D9" transform="rotate(-23.6743 83.6824 670.492)" rx="10.6387" height="21.2774" width="25.9659" y="670.492" x="83.6824"/>
<path fill="#D9D9D9" d="M149.58 653.16C147.221 647.779 149.671 641.504 155.052 639.145L159.346 637.262C164.727 634.903 171.002 637.353 173.361 642.734C175.72 648.115 173.271 654.39 167.89 656.749L163.596 658.632C158.214 660.991 151.94 658.541 149.58 653.16Z"/>
<rect fill="#D9D9D9" transform="rotate(-23.6743 114.567 656.923)" rx="10.6387" height="21.2774" width="25.9659" y="656.923" x="114.567"/>
<rect fill="#D9D9D9" transform="rotate(-23.6743 176.051 629.91)" rx="10.6387" height="21.2774" width="25.9659" y="629.91" x="176.051"/>
<rect fill="#D9D9D9" transform="rotate(-23.6743 237.534 602.898)" rx="10.6387" height="21.2774" width="25.9659" y="602.898" x="237.534"/>
<rect fill="#D9D9D9" transform="rotate(-23.6743 206.792 616.404)" rx="10.6387" height="21.2774" width="25.9659" y="616.404" x="206.792"/>
<rect fill="#D9D9D9" transform="rotate(-23.6743 109.431 728.67)" rx="10.6387" height="21.2774" width="25.9659" y="728.67" x="109.431"/>
<path fill="#D9D9D9" d="M175.329 711.338C172.97 705.957 175.42 699.682 180.801 697.323L185.095 695.44C190.476 693.081 196.751 695.531 199.11 700.912C201.469 706.293 199.02 712.568 193.639 714.927L189.345 716.81C183.964 719.169 177.689 716.719 175.329 711.338Z"/>
<rect fill="#D9D9D9" transform="rotate(-23.6743 140.316 715.101)" rx="10.6387" height="21.2774" width="25.9659" y="715.101" x="140.316"/>
<rect fill="#D9D9D9" transform="rotate(-23.6743 201.799 688.088)" rx="10.6387" height="21.2774" width="25.9659" y="688.088" x="201.799"/>
<rect fill="#D9D9D9" transform="rotate(-23.6743 263.283 661.076)" rx="10.6387" height="21.2774" width="25.9659" y="661.076" x="263.283"/>
<rect fill="#A9C7BA" transform="rotate(-23.6743 232.541 674.582)" rx="10.6387" height="21.2774" width="25.9659" y="674.582" x="232.541"/>
<rect fill="#D9D9D9" transform="rotate(-23.6743 96.6357 699.546)" rx="10.6387" height="21.2774" width="25.9659" y="699.546" x="96.6357"/>
<path fill="#D9D9D9" d="M162.534 682.214C160.175 676.833 162.624 670.558 168.006 668.199L172.3 666.317C177.681 663.957 183.955 666.407 186.315 671.788C188.674 677.169 186.224 683.444 180.843 685.803L176.549 687.686C171.168 690.045 164.893 687.595 162.534 682.214Z"/>
<rect fill="#D9D9D9" transform="rotate(-23.6743 127.521 685.977)" rx="10.6387" height="21.2774" width="25.9659" y="685.977" x="127.521"/>
<rect fill="#D9D9D9" transform="rotate(-23.6743 189.004 658.965)" rx="10.6387" height="21.2774" width="25.9659" y="658.965" x="189.004"/>
<rect fill="#D9D9D9" transform="rotate(-23.6743 250.487 631.952)" rx="10.6387" height="21.2774" width="25.9659" y="631.952" x="250.487"/>
<rect fill="#D9D9D9" transform="rotate(-23.6743 219.746 645.458)" rx="10.6387" height="21.2774" width="25.9659" y="645.458" x="219.746"/>
<path fill="#BC4C10" d="M262.788 652.894C263.687 651.442 265.593 650.993 267.045 651.892C268.497 652.791 268.945 654.698 268.046 656.15L247.63 689.131C247.546 690.105 247.006 691.024 246.095 691.549C245.881 691.672 245.658 691.765 245.431 691.833C244.499 692.309 243.35 692.303 242.395 691.713C241.367 691.076 240.844 689.934 240.945 688.805L234.573 677.745C233.721 676.265 234.23 674.373 235.71 673.521C237.189 672.668 239.08 673.177 239.933 674.657L244.455 682.508L262.788 652.894Z"/>
<path fill="#A9C7BA" d="M208.734 317.488C211.334 318.79 212.387 321.953 211.085 324.554C209.783 327.154 206.62 328.207 204.019 326.906L200.488 325.137L187.523 351.034L195.174 354.866C197.449 356.005 198.371 358.774 197.231 361.049C196.092 363.324 193.324 364.245 191.048 363.106L184.338 359.746C184.535 361.585 184.227 363.5 183.337 365.276L147.206 437.445C145.12 441.612 140.517 443.687 136.163 442.748C136.023 442.718 135.883 442.683 135.743 442.646C136.07 443.852 135.973 445.178 135.37 446.383C134.068 448.984 130.904 450.037 128.303 448.735L124.762 446.961C124.741 447.018 124.718 447.075 124.69 447.131L99.5126 497.42C99.1417 498.161 98.2403 498.461 97.4995 498.09C96.7591 497.719 96.4593 496.819 96.8299 496.078L122.007 445.788C122.035 445.732 122.067 445.68 122.101 445.629L121.829 445.494C119.229 444.192 118.176 441.028 119.478 438.427C120.059 437.266 121.012 436.414 122.12 435.941C122.117 435.939 122.113 435.937 122.109 435.935C120.059 434.484 118.685 432.352 118.148 430.011C118.076 429.699 118.02 429.384 117.978 429.065C117.853 428.11 117.865 427.132 118.025 426.161C118.047 426.024 118.075 425.887 118.103 425.749C118.031 425.425 118.064 425.075 118.225 424.755C118.296 424.613 118.387 424.487 118.492 424.379C118.509 424.333 118.524 424.285 118.542 424.238C118.662 423.923 118.799 423.609 118.954 423.301L127.063 407.103C127.064 407.101 127.064 407.099 127.065 407.098C127.066 407.095 127.068 407.093 127.069 407.091L143.356 374.561L144.742 371.792C144.744 371.789 144.745 371.786 144.746 371.783C144.748 371.779 144.75 371.776 144.752 371.772L155.085 351.132C155.974 349.355 157.323 347.961 158.913 347.017L152.791 343.952C150.515 342.813 149.594 340.044 150.733 337.769C151.873 335.494 154.64 334.573 156.916 335.712L164.568 339.542L177.533 313.644L174.002 311.876C171.401 310.575 170.348 307.412 171.65 304.811C172.952 302.211 176.116 301.158 178.716 302.459L208.734 317.488Z"/>
<rect stroke-width="3" stroke="#3D7B61" fill="#FBFDFB" transform="rotate(-153.405 159.656 431.327)" rx="8.5" height="97.7089" width="28.5949" y="431.327" x="159.656"/>
<path stroke-width="3" stroke="#3D7B61" fill="#A9C7BA" d="M152.055 427.521L141.688 422.331C137.49 420.229 135.791 415.123 137.892 410.925L161.621 363.527L187.191 376.328L163.461 423.726C161.36 427.924 156.253 429.623 152.055 427.521Z"/>
<rect stroke-width="3" stroke="#3D7B61" fill="#FBFDFB" transform="rotate(-153.405 212.096 350.108)" rx="3.10759" height="6.21519" width="49" y="350.108" x="212.096"/>
<rect stroke-width="3" stroke="#3D7B61" fill="#FBFDFB" transform="rotate(-153.405 225.655 314.202)" rx="3.76582" height="7.53165" width="41.1013" y="314.202" x="225.655"/>
<rect stroke-width="3" stroke="#3D7B61" fill="#FBFDFB" transform="rotate(-153.405 203.565 337.74)" height="29.9114" width="22.6709" y="337.74" x="203.565"/>
<rect stroke-width="3" stroke="#3D7B61" fill="#A9C7BA" transform="rotate(-153.405 149.94 436.032)" rx="3.76582" height="7.53165" width="14.7722" y="436.032" x="149.94"/>
<line stroke-linecap="round" stroke-width="3" stroke="#3D7B61" y2="433.412" x2="140.946" y1="483.702" x1="115.768"/>
<line stroke-linecap="round" stroke-width="3" stroke="#3D7B61" y2="403.551" x2="141.584" y1="413.405" x1="161.267"/>
<line stroke-linecap="round" stroke-width="3" stroke="#3D7B61" y2="368.235" x2="159.264" y1="378.09" x1="178.948"/>
<line stroke-linecap="round" stroke-width="3" stroke="#3D7B61" y2="385.893" x2="150.424" y1="395.748" x1="170.108"/>
<line stroke-linecap="round" stroke-width="3" stroke="#BC4C10" y2="350.578" x2="168.104" y1="360.432" x1="187.788"/>
<line stroke-linecap="round" stroke-width="3" stroke="#3D7B61" y2="359.407" x2="163.684" y1="365.136" x1="175.128"/>
<line stroke-linecap="round" stroke-width="3" stroke="#3D7B61" y2="377.064" x2="154.844" y1="382.793" x1="166.287"/>
<line stroke-linecap="round" stroke-width="3" stroke="#3D7B61" y2="394.722" x2="146.004" y1="400.451" x1="157.447"/>
<line stroke-linecap="round" stroke-width="3" stroke="#3D7B61" y2="412.379" x2="137.164" y1="418.108" x1="148.607"/>
<path fill="#A9C7BA" d="M348.554 771.537C356.716 776.714 359.135 787.528 353.957 795.689L330.681 832.377C325.504 840.538 314.691 842.956 306.53 837.779C298.369 832.601 295.95 821.788 301.127 813.627L324.403 776.939C329.581 768.778 340.393 766.359 348.554 771.537ZM369.518 738.028C373.093 740.296 374.295 744.948 372.267 748.664L363.341 765.013C360.712 769.828 354.561 771.417 349.929 768.478C345.22 765.491 344.091 759.105 347.49 754.684L358.843 739.915C361.377 736.619 366.007 735.801 369.518 738.028Z"/>
<rect stroke-width="3" stroke="#3D7B61" fill="#A9C7BA" transform="rotate(32.3916 328.972 751.334)" rx="16" height="75.4483" width="32" y="751.334" x="328.972"/>
<path stroke-width="3" stroke="#3D7B61" fill="#FBFDFB" d="M345.464 754.314C341.499 751.799 340.549 746.422 343.411 742.699L354.764 727.932C356.825 725.251 360.591 724.585 363.446 726.396C366.354 728.241 367.331 732.025 365.681 735.047L356.756 751.396C354.543 755.45 349.364 756.788 345.464 754.314Z"/>
<path fill="#A9C7BA" d="M213.877 859.868C214.359 858.341 217.755 858.051 221.461 859.222C225.167 860.392 227.78 862.58 227.298 864.107C226.91 865.333 224.648 865.759 221.854 865.275L216.413 882.503C223.454 885.241 229.101 890.161 232.837 896.254L248.583 887.656C247.595 884.974 247.591 882.65 248.711 882.038C250.107 881.276 252.72 883.464 254.546 886.926C256.372 890.387 256.72 893.811 255.324 894.573C254.204 895.185 252.302 893.896 250.65 891.574L234.903 900.173C237.94 906.959 238.799 914.78 236.903 922.505L253.888 927.87C255.105 925.253 256.753 923.604 257.965 923.986C259.47 924.462 259.728 927.895 258.541 931.654C257.353 935.413 255.17 938.076 253.665 937.601C252.46 937.22 252.055 934.946 252.55 932.126L235.568 926.762C232.819 933.917 227.922 939.681 221.878 943.524L230.248 959.389C232.918 958.358 235.226 958.331 235.823 959.463C236.565 960.869 234.381 963.53 230.944 965.406C227.508 967.282 224.121 967.664 223.379 966.258C222.785 965.133 224.066 963.205 226.361 961.518L217.995 945.657C211.225 948.822 203.432 949.764 195.762 947.879L190.32 965.106C192.884 966.315 194.49 967.964 194.103 969.19C193.62 970.716 190.226 971.005 186.52 969.835C182.815 968.664 180.202 966.477 180.683 964.95C181.071 963.725 183.332 963.297 186.126 963.78L191.567 946.553C184.526 943.814 178.879 938.894 175.143 932.801L159.395 941.399C160.384 944.083 160.39 946.408 159.269 947.02C157.873 947.781 155.261 945.593 153.435 942.132C151.609 938.67 151.26 935.246 152.656 934.483C153.776 933.872 155.677 935.161 157.329 937.482L173.077 928.884C170.04 922.098 169.18 914.276 171.076 906.551L154.093 901.187C152.876 903.803 151.228 905.453 150.016 905.07C148.511 904.595 148.253 901.162 149.44 897.402C150.628 893.643 152.811 890.981 154.316 891.456C155.521 891.837 155.924 894.11 155.43 896.93L172.411 902.294C175.16 895.139 180.058 889.375 186.101 885.531L177.732 869.667C175.063 870.698 172.754 870.725 172.157 869.594C171.416 868.187 173.6 865.527 177.036 863.65C180.472 861.774 183.86 861.394 184.601 862.8C185.195 863.925 183.914 865.851 181.618 867.538L189.985 883.398C196.755 880.234 204.549 879.293 212.219 881.178L217.66 863.95C215.097 862.741 213.49 861.093 213.877 859.868Z"/>
<mask fill="white" id="path-48-inside-1_127_256">
<path d="M203.182 849.365C203.665 847.838 207.061 847.548 210.766 848.719C214.472 849.889 217.086 852.077 216.603 853.605C216.216 854.83 213.954 855.256 211.16 854.773L205.719 872C212.759 874.738 218.406 879.658 222.142 885.751L237.889 877.153C236.901 874.471 236.897 872.147 238.016 871.535C239.412 870.773 242.025 872.961 243.851 876.423C245.677 879.884 246.026 883.308 244.63 884.07C243.509 884.682 241.608 883.393 239.956 881.071L224.209 889.67C227.246 896.456 228.105 904.277 226.209 912.002L243.193 917.367C244.41 914.75 246.059 913.101 247.27 913.483C248.776 913.959 249.034 917.392 247.847 921.151C246.659 924.91 244.476 927.573 242.971 927.098C241.766 926.717 241.361 924.443 241.855 921.623L224.874 916.259C222.124 923.414 217.228 929.178 211.183 933.022L219.554 948.886C222.223 947.855 224.532 947.829 225.129 948.96C225.871 950.366 223.686 953.027 220.25 954.903C216.814 956.779 213.427 957.161 212.684 955.755C212.091 954.63 213.371 952.702 215.667 951.015L207.301 935.154C200.531 938.319 192.737 939.262 185.067 937.376L179.626 954.603C182.19 955.812 183.796 957.461 183.409 958.687C182.926 960.213 179.531 960.502 175.826 959.332C172.12 958.162 169.507 955.975 169.989 954.447C170.376 953.222 172.638 952.794 175.431 953.277L180.873 936.05C173.832 933.311 168.185 928.391 164.449 922.298L148.701 930.897C149.69 933.58 149.695 935.905 148.575 936.517C147.179 937.278 144.567 935.09 142.741 931.629C140.915 928.167 140.566 924.743 141.962 923.981C143.082 923.369 144.983 924.658 146.635 926.979L162.383 918.381C159.346 911.595 158.486 903.773 160.382 896.048L143.398 890.684C142.181 893.3 140.533 894.95 139.322 894.567C137.817 894.092 137.558 890.659 138.746 886.899C139.933 883.14 142.116 880.478 143.622 880.953C144.827 881.334 145.229 883.607 144.735 886.427L161.717 891.791C164.466 884.637 169.364 878.872 175.407 875.028L167.038 859.164C164.368 860.195 162.06 860.222 161.463 859.091C160.721 857.685 162.906 855.024 166.342 853.148C169.778 851.271 173.165 850.891 173.907 852.297C174.5 853.422 173.219 855.348 170.924 857.035L179.291 872.896C186.06 869.731 193.854 868.79 201.524 870.675L206.966 853.447C204.402 852.238 202.796 850.591 203.182 849.365Z"/>
</mask>
<path fill="#A9C7BA" d="M203.182 849.365C203.665 847.838 207.061 847.548 210.766 848.719C214.472 849.889 217.086 852.077 216.603 853.605C216.216 854.83 213.954 855.256 211.16 854.773L205.719 872C212.759 874.738 218.406 879.658 222.142 885.751L237.889 877.153C236.901 874.471 236.897 872.147 238.016 871.535C239.412 870.773 242.025 872.961 243.851 876.423C245.677 879.884 246.026 883.308 244.63 884.07C243.509 884.682 241.608 883.393 239.956 881.071L224.209 889.67C227.246 896.456 228.105 904.277 226.209 912.002L243.193 917.367C244.41 914.75 246.059 913.101 247.27 913.483C248.776 913.959 249.034 917.392 247.847 921.151C246.659 924.91 244.476 927.573 242.971 927.098C241.766 926.717 241.361 924.443 241.855 921.623L224.874 916.259C222.124 923.414 217.228 929.178 211.183 933.022L219.554 948.886C222.223 947.855 224.532 947.829 225.129 948.96C225.871 950.366 223.686 953.027 220.25 954.903C216.814 956.779 213.427 957.161 212.684 955.755C212.091 954.63 213.371 952.702 215.667 951.015L207.301 935.154C200.531 938.319 192.737 939.262 185.067 937.376L179.626 954.603C182.19 955.812 183.796 957.461 183.409 958.687C182.926 960.213 179.531 960.502 175.826 959.332C172.12 958.162 169.507 955.975 169.989 954.447C170.376 953.222 172.638 952.794 175.431 953.277L180.873 936.05C173.832 933.311 168.185 928.391 164.449 922.298L148.701 930.897C149.69 933.58 149.695 935.905 148.575 936.517C147.179 937.278 144.567 935.09 142.741 931.629C140.915 928.167 140.566 924.743 141.962 923.981C143.082 923.369 144.983 924.658 146.635 926.979L162.383 918.381C159.346 911.595 158.486 903.773 160.382 896.048L143.398 890.684C142.181 893.3 140.533 894.95 139.322 894.567C137.817 894.092 137.558 890.659 138.746 886.899C139.933 883.14 142.116 880.478 143.622 880.953C144.827 881.334 145.229 883.607 144.735 886.427L161.717 891.791C164.466 884.637 169.364 878.872 175.407 875.028L167.038 859.164C164.368 860.195 162.06 860.222 161.463 859.091C160.721 857.685 162.906 855.024 166.342 853.148C169.778 851.271 173.165 850.891 173.907 852.297C174.5 853.422 173.219 855.348 170.924 857.035L179.291 872.896C186.06 869.731 193.854 868.79 201.524 870.675L206.966 853.447C204.402 852.238 202.796 850.591 203.182 849.365Z"/>
<path mask="url(#path-48-inside-1_127_256)" fill="#3D7B61" d="M203.182 849.365L202.229 849.064L202.229 849.064L203.182 849.365ZM210.766 848.719L211.068 847.765L211.068 847.765L210.766 848.719ZM216.603 853.605L217.557 853.906L217.557 853.906L216.603 853.605ZM211.16 854.773L211.331 853.787L210.47 853.638L210.206 854.471L211.16 854.773ZM205.719 872L204.765 871.699L204.483 872.592L205.356 872.932L205.719 872ZM222.142 885.751L221.29 886.274L221.787 887.084L222.622 886.629L222.142 885.751ZM237.889 877.153L238.368 878.031L239.125 877.618L238.827 876.808L237.889 877.153ZM238.016 871.535L237.537 870.658L237.537 870.658L238.016 871.535ZM243.851 876.423L244.736 875.956L244.736 875.956L243.851 876.423ZM244.63 884.07L245.109 884.948L245.109 884.948L244.63 884.07ZM239.956 881.071L240.771 880.492L240.256 879.768L239.477 880.194L239.956 881.071ZM224.209 889.67L223.73 888.792L222.919 889.235L223.296 890.079L224.209 889.67ZM226.209 912.002L225.238 911.764L225.014 912.673L225.908 912.956L226.209 912.002ZM243.193 917.367L242.892 918.321L243.73 918.585L244.1 917.789L243.193 917.367ZM247.27 913.483L247.572 912.53L247.571 912.53L247.27 913.483ZM247.847 921.151L248.8 921.453L248.8 921.453L247.847 921.151ZM242.971 927.098L242.669 928.051L242.67 928.051L242.971 927.098ZM241.855 921.623L242.84 921.796L242.992 920.933L242.157 920.67L241.855 921.623ZM224.874 916.259L225.175 915.305L224.278 915.022L223.94 915.9L224.874 916.259ZM211.183 933.022L210.647 932.178L209.869 932.673L210.299 933.488L211.183 933.022ZM219.554 948.886L218.669 949.352L219.084 950.139L219.914 949.819L219.554 948.886ZM225.129 948.96L226.013 948.493L226.013 948.493L225.129 948.96ZM220.25 954.903L220.729 955.781L220.729 955.781L220.25 954.903ZM212.684 955.755L211.8 956.222L211.8 956.222L212.684 955.755ZM215.667 951.015L216.259 951.82L216.953 951.31L216.551 950.548L215.667 951.015ZM207.301 935.154L208.185 934.688L207.74 933.845L206.877 934.248L207.301 935.154ZM185.067 937.376L185.306 936.405L184.396 936.181L184.114 937.075L185.067 937.376ZM179.626 954.603L178.672 954.301L178.409 955.134L179.199 955.507L179.626 954.603ZM183.409 958.687L184.362 958.988L184.363 958.988L183.409 958.687ZM175.826 959.332L175.525 960.286L175.525 960.286L175.826 959.332ZM169.989 954.447L169.036 954.146L169.035 954.146L169.989 954.447ZM175.431 953.277L175.261 954.263L176.122 954.412L176.385 953.579L175.431 953.277ZM180.873 936.05L181.826 936.351L182.109 935.458L181.235 935.118L180.873 936.05ZM164.449 922.298L165.302 921.775L164.804 920.964L163.97 921.42L164.449 922.298ZM148.701 930.897L148.222 930.019L147.464 930.432L147.763 931.242L148.701 930.897ZM148.575 936.517L149.054 937.394L149.054 937.394L148.575 936.517ZM142.741 931.629L141.857 932.096L141.857 932.096L142.741 931.629ZM141.962 923.981L141.483 923.103L141.483 923.103L141.962 923.981ZM146.635 926.979L145.82 927.558L146.335 928.282L147.114 927.856L146.635 926.979ZM162.383 918.381L162.862 919.259L163.673 918.816L163.295 917.972L162.383 918.381ZM160.382 896.048L161.353 896.286L161.576 895.376L160.683 895.094L160.382 896.048ZM143.398 890.684L143.699 889.73L142.862 889.466L142.492 890.262L143.398 890.684ZM139.322 894.567L139.021 895.521L139.021 895.521L139.322 894.567ZM138.746 886.899L137.792 886.598L137.792 886.598L138.746 886.899ZM143.622 880.953L143.923 880L143.923 880L143.622 880.953ZM144.735 886.427L143.75 886.254L143.599 887.117L144.434 887.38L144.735 886.427ZM161.717 891.791L161.415 892.745L162.313 893.028L162.65 892.15L161.717 891.791ZM175.407 875.028L175.944 875.872L176.722 875.377L176.292 874.562L175.407 875.028ZM167.038 859.164L167.922 858.698L167.507 857.911L166.678 858.231L167.038 859.164ZM161.463 859.091L160.578 859.557L160.578 859.557L161.463 859.091ZM166.342 853.148L165.862 852.27L165.862 852.27L166.342 853.148ZM173.907 852.297L174.792 851.83L174.792 851.83L173.907 852.297ZM170.924 857.035L170.331 856.229L169.637 856.74L170.039 857.502L170.924 857.035ZM179.291 872.896L178.406 873.362L178.851 874.205L179.714 873.801L179.291 872.896ZM201.524 870.675L201.286 871.646L202.196 871.87L202.478 870.976L201.524 870.675ZM206.966 853.447L207.919 853.749L208.182 852.916L207.392 852.543L206.966 853.447ZM203.182 849.365L204.136 849.667C204.15 849.621 204.211 849.494 204.5 849.349C204.792 849.201 205.242 849.079 205.851 849.027C207.064 848.923 208.706 849.117 210.465 849.672L210.766 848.719L211.068 847.765C209.121 847.15 207.213 846.903 205.681 847.034C204.917 847.099 204.196 847.262 203.6 847.562C203.001 847.864 202.456 848.346 202.229 849.064L203.182 849.365ZM210.766 848.719L210.465 849.672C212.225 850.228 213.68 851.013 214.614 851.795C215.082 852.187 215.38 852.545 215.535 852.834C215.688 853.119 215.664 853.258 215.65 853.303L216.603 853.605L217.557 853.906C217.784 853.188 217.615 852.48 217.297 851.889C216.982 851.301 216.485 850.753 215.897 850.261C214.718 849.274 213.014 848.38 211.068 847.765L210.766 848.719ZM216.603 853.605L215.65 853.303C215.626 853.377 215.447 853.671 214.581 853.85C213.779 854.016 212.648 854.015 211.331 853.787L211.16 854.773L210.989 855.758C212.465 856.013 213.863 856.041 214.987 855.809C216.047 855.589 217.193 855.057 217.557 853.906L216.603 853.605ZM211.16 854.773L210.206 854.471L204.765 871.699L205.719 872L206.672 872.301L212.114 855.074L211.16 854.773ZM205.719 872L205.356 872.932C212.185 875.588 217.663 880.36 221.29 886.274L222.142 885.751L222.995 885.228C219.149 878.957 213.334 873.889 206.081 871.068L205.719 872ZM222.142 885.751L222.622 886.629L238.368 878.031L237.889 877.153L237.409 876.276L221.663 884.873L222.142 885.751ZM237.889 877.153L238.827 876.808C238.36 875.541 238.149 874.415 238.162 873.583C238.176 872.682 238.433 872.447 238.496 872.413L238.016 871.535L237.537 870.658C236.481 871.235 236.179 872.468 236.162 873.552C236.144 874.706 236.429 876.084 236.95 877.499L237.889 877.153ZM238.016 871.535L238.496 872.413C238.529 872.395 238.651 872.344 238.952 872.442C239.259 872.541 239.662 872.769 240.13 873.162C241.064 873.944 242.099 875.244 242.967 876.89L243.851 876.423L244.736 875.956C243.778 874.14 242.593 872.616 241.415 871.629C240.828 871.137 240.201 870.744 239.568 870.539C238.93 870.333 238.202 870.295 237.537 870.658L238.016 871.535ZM243.851 876.423L242.967 876.889C243.835 878.535 244.329 880.132 244.454 881.36C244.517 881.977 244.481 882.449 244.391 882.771C244.301 883.09 244.187 883.173 244.151 883.193L244.63 884.07L245.109 884.948C245.77 884.587 246.136 883.955 246.317 883.31C246.497 882.668 246.522 881.925 246.444 881.158C246.287 879.618 245.694 877.772 244.736 875.956L243.851 876.423ZM244.63 884.07L244.151 883.193C244.097 883.222 243.779 883.316 243.038 882.833C242.354 882.387 241.551 881.588 240.771 880.492L239.956 881.071L239.141 881.651C240.013 882.876 240.986 883.883 241.946 884.508C242.849 885.097 244.042 885.53 245.109 884.948L244.63 884.07ZM239.956 881.071L239.477 880.194L223.73 888.792L224.209 889.67L224.688 890.548L240.435 881.949L239.956 881.071ZM224.209 889.67L223.296 890.079C226.245 896.667 227.079 904.261 225.238 911.764L226.209 912.002L227.18 912.24C229.131 904.293 228.247 896.244 225.122 889.261L224.209 889.67ZM226.209 912.002L225.908 912.956L242.892 918.321L243.193 917.367L243.494 916.414L226.51 911.048L226.209 912.002ZM243.193 917.367L244.1 917.789C244.676 916.551 245.329 915.6 245.929 915.02C246.582 914.389 246.917 914.421 246.969 914.437L247.27 913.483L247.571 912.53C246.412 912.164 245.317 912.829 244.539 913.581C243.708 914.385 242.928 915.567 242.286 916.946L243.193 917.367ZM247.27 913.483L246.969 914.437C246.999 914.447 247.121 914.497 247.263 914.79C247.407 915.086 247.525 915.542 247.571 916.161C247.664 917.393 247.458 919.061 246.893 920.85L247.847 921.151L248.8 921.453C249.422 919.483 249.681 917.555 249.565 916.011C249.508 915.242 249.353 914.516 249.062 913.917C248.77 913.315 248.294 912.758 247.572 912.53L247.27 913.483ZM247.847 921.151L246.893 920.85C246.328 922.639 245.538 924.123 244.755 925.078C244.361 925.558 244.003 925.864 243.715 926.023C243.43 926.182 243.301 926.154 243.271 926.144L242.971 927.098L242.67 928.051C243.392 928.279 244.101 928.097 244.686 927.772C245.268 927.448 245.812 926.943 246.301 926.346C247.283 925.149 248.178 923.423 248.8 921.453L247.847 921.151ZM242.971 927.098L243.272 926.144C243.22 926.128 242.93 925.964 242.757 925.083C242.598 924.272 242.606 923.129 242.84 921.796L241.855 921.623L240.87 921.45C240.61 922.937 240.573 924.341 240.794 925.468C241.002 926.523 241.516 927.687 242.669 928.051L242.971 927.098ZM241.855 921.623L242.157 920.67L225.175 915.305L224.874 916.259L224.573 917.212L241.554 922.577L241.855 921.623ZM224.874 916.259L223.94 915.9C221.27 922.85 216.515 928.446 210.647 932.178L211.183 933.022L211.72 933.865C217.94 929.91 222.979 923.978 225.807 916.618L224.874 916.259ZM211.183 933.022L210.299 933.488L218.669 949.352L219.554 948.886L220.438 948.419L212.068 932.555L211.183 933.022ZM219.554 948.886L219.914 949.819C221.175 949.332 222.291 949.107 223.112 949.112C224.002 949.118 224.216 949.373 224.244 949.427L225.129 948.96L226.013 948.493C225.445 947.416 224.206 947.119 223.124 947.112C221.975 947.105 220.602 947.409 219.193 947.953L219.554 948.886ZM225.129 948.96L224.244 949.427C224.264 949.463 224.313 949.595 224.211 949.91C224.108 950.228 223.877 950.642 223.483 951.121C222.7 952.075 221.404 953.134 219.771 954.026L220.25 954.903L220.729 955.781C222.532 954.797 224.047 953.587 225.029 952.39C225.519 951.794 225.909 951.161 226.114 950.526C226.32 949.889 226.365 949.16 226.013 948.493L225.129 948.96ZM220.25 954.903L219.771 954.026C218.137 954.918 216.556 955.43 215.345 955.566C214.737 955.635 214.275 955.602 213.965 955.516C213.66 955.43 213.586 955.322 213.569 955.288L212.684 955.755L211.8 956.222C212.153 956.891 212.782 957.262 213.428 957.442C214.069 957.621 214.808 957.639 215.569 957.554C217.096 957.382 218.927 956.765 220.729 955.781L220.25 954.903ZM212.684 955.755L213.569 955.288C213.536 955.226 213.451 954.89 213.935 954.134C214.381 953.436 215.175 952.617 216.259 951.82L215.667 951.015L215.075 950.209C213.863 951.099 212.869 952.088 212.25 953.057C211.667 953.968 211.239 955.159 211.8 956.222L212.684 955.755ZM215.667 951.015L216.551 950.548L208.185 934.688L207.301 935.154L206.416 935.621L214.782 951.481L215.667 951.015ZM207.301 935.154L206.877 934.248C200.305 937.321 192.745 938.234 185.306 936.405L185.067 937.376L184.829 938.347C192.73 940.289 200.756 939.318 207.724 936.06L207.301 935.154ZM185.067 937.376L184.114 937.075L178.672 954.301L179.626 954.603L180.579 954.904L186.021 937.677L185.067 937.376ZM179.626 954.603L179.199 955.507C180.409 956.077 181.334 956.726 181.896 957.323C182.501 957.967 182.479 958.311 182.455 958.385L183.409 958.687L184.363 958.988C184.726 957.837 184.095 956.743 183.353 955.954C182.567 955.117 181.407 954.337 180.052 953.698L179.626 954.603ZM183.409 958.687L182.456 958.385C182.441 958.431 182.381 958.558 182.092 958.703C181.799 958.85 181.35 958.973 180.741 959.024C179.528 959.128 177.887 958.934 176.127 958.379L175.826 959.332L175.525 960.286C177.471 960.9 179.379 961.148 180.911 961.017C181.674 960.952 182.396 960.789 182.991 960.489C183.591 960.188 184.135 959.706 184.362 958.988L183.409 958.687ZM175.826 959.332L176.127 958.379C174.368 957.823 172.913 957.038 171.979 956.257C171.51 955.864 171.213 955.506 171.058 955.217C170.905 954.933 170.928 954.794 170.943 954.748L169.989 954.447L169.035 954.146C168.809 954.864 168.978 955.572 169.296 956.163C169.611 956.751 170.108 957.299 170.695 957.79C171.874 958.777 173.579 959.671 175.525 960.286L175.826 959.332ZM169.989 954.447L170.943 954.749C170.966 954.674 171.146 954.38 172.011 954.201C172.813 954.034 173.944 954.035 175.261 954.263L175.431 953.277L175.602 952.292C174.126 952.037 172.729 952.009 171.605 952.242C170.544 952.462 169.399 952.995 169.036 954.146L169.989 954.447ZM175.431 953.277L176.385 953.579L181.826 936.351L180.873 936.05L179.919 935.749L174.478 952.976L175.431 953.277ZM180.873 936.05L181.235 935.118C174.406 932.462 168.928 927.69 165.302 921.775L164.449 922.298L163.597 922.821C167.442 929.093 173.258 934.161 180.51 936.982L180.873 936.05ZM164.449 922.298L163.97 921.42L148.222 930.019L148.701 930.897L149.18 931.774L164.928 923.176L164.449 922.298ZM148.701 930.897L147.763 931.242C148.23 932.51 148.442 933.636 148.429 934.468C148.415 935.371 148.159 935.605 148.096 935.639L148.575 936.517L149.054 937.394C150.112 936.817 150.412 935.583 150.429 934.499C150.446 933.345 150.161 931.967 149.639 930.551L148.701 930.897ZM148.575 936.517L148.096 935.639C148.062 935.657 147.941 935.707 147.639 935.61C147.333 935.51 146.93 935.283 146.462 934.89C145.528 934.108 144.494 932.808 143.626 931.162L142.741 931.629L141.857 932.096C142.814 933.911 143.999 935.436 145.177 936.423C145.764 936.915 146.39 937.307 147.023 937.512C147.661 937.719 148.39 937.757 149.054 937.394L148.575 936.517ZM142.741 931.629L143.626 931.162C142.757 929.517 142.263 927.919 142.138 926.691C142.075 926.074 142.111 925.602 142.201 925.28C142.29 924.96 142.404 924.878 142.441 924.858L141.962 923.981L141.483 923.103C140.821 923.464 140.455 924.096 140.275 924.741C140.095 925.384 140.07 926.126 140.148 926.894C140.305 928.434 140.898 930.279 141.857 932.096L142.741 931.629ZM141.962 923.981L142.441 924.858C142.495 924.829 142.812 924.735 143.553 925.218C144.237 925.664 145.04 926.462 145.82 927.558L146.635 926.979L147.449 926.399C146.578 925.174 145.604 924.168 144.645 923.542C143.742 922.954 142.549 922.521 141.483 923.103L141.962 923.981ZM146.635 926.979L147.114 927.856L162.862 919.259L162.383 918.381L161.903 917.503L146.155 926.101L146.635 926.979ZM162.383 918.381L163.295 917.972C160.347 911.384 159.511 903.789 161.353 896.286L160.382 896.048L159.411 895.81C157.46 903.757 158.345 911.806 161.47 918.789L162.383 918.381ZM160.382 896.048L160.683 895.094L143.699 889.73L143.398 890.684L143.097 891.637L160.08 897.001L160.382 896.048ZM143.398 890.684L142.492 890.262C141.916 891.5 141.263 892.451 140.663 893.031C140.01 893.662 139.675 893.63 139.623 893.614L139.322 894.567L139.021 895.521C140.18 895.887 141.275 895.221 142.053 894.469C142.884 893.666 143.664 892.484 144.305 891.105L143.398 890.684ZM139.322 894.567L139.623 893.614C139.593 893.604 139.472 893.554 139.329 893.26C139.186 892.965 139.068 892.509 139.021 891.89C138.929 890.658 139.134 888.99 139.699 887.201L138.746 886.899L137.792 886.598C137.17 888.568 136.911 890.496 137.027 892.04C137.085 892.809 137.239 893.535 137.53 894.134C137.823 894.736 138.298 895.293 139.021 895.521L139.322 894.567ZM138.746 886.899L139.699 887.201C140.265 885.411 141.055 883.928 141.838 882.973C142.231 882.493 142.59 882.187 142.877 882.027C143.162 881.869 143.291 881.897 143.321 881.907L143.622 880.953L143.923 880C143.2 879.771 142.491 879.954 141.906 880.279C141.324 880.602 140.78 881.108 140.291 881.704C139.31 882.901 138.415 884.628 137.792 886.598L138.746 886.899ZM143.622 880.953L143.321 881.907C143.372 881.923 143.662 882.086 143.834 882.967C143.993 883.778 143.984 884.921 143.75 886.254L144.735 886.427L145.72 886.599C145.981 885.114 146.017 883.71 145.797 882.583C145.59 881.528 145.076 880.364 143.923 880L143.622 880.953ZM144.735 886.427L144.434 887.38L161.415 892.745L161.717 891.791L162.018 890.838L145.036 885.473L144.735 886.427ZM161.717 891.791L162.65 892.15C165.32 885.201 170.076 879.604 175.944 875.872L175.407 875.028L174.87 874.185C168.651 878.14 163.612 884.072 160.783 891.432L161.717 891.791ZM175.407 875.028L176.292 874.562L167.922 858.698L167.038 859.164L166.153 859.631L174.523 875.495L175.407 875.028ZM167.038 859.164L166.678 858.231C165.417 858.718 164.3 858.943 163.479 858.938C162.589 858.933 162.376 858.678 162.347 858.624L161.463 859.091L160.578 859.557C161.147 860.635 162.386 860.932 163.467 860.938C164.617 860.945 165.99 860.641 167.398 860.097L167.038 859.164ZM161.463 859.091L162.347 858.625C162.328 858.588 162.278 858.456 162.381 858.141C162.483 857.823 162.715 857.409 163.109 856.93C163.892 855.975 165.188 854.917 166.821 854.025L166.342 853.148L165.862 852.27C164.06 853.254 162.545 854.464 161.563 855.661C161.073 856.257 160.683 856.89 160.478 857.525C160.271 858.162 160.227 858.891 160.578 859.557L161.463 859.091ZM166.342 853.148L166.821 854.025C168.455 853.133 170.036 852.621 171.247 852.485C171.855 852.417 172.316 852.449 172.626 852.536C172.932 852.621 173.005 852.73 173.023 852.764L173.907 852.297L174.792 851.83C174.438 851.161 173.81 850.79 173.164 850.61C172.523 850.431 171.784 850.412 171.023 850.498C169.495 850.669 167.665 851.286 165.862 852.27L166.342 853.148ZM173.907 852.297L173.023 852.763C173.056 852.826 173.14 853.161 172.656 853.916C172.21 854.614 171.416 855.432 170.331 856.229L170.924 857.035L171.516 857.841C172.727 856.951 173.721 855.963 174.341 854.994C174.924 854.084 175.352 852.893 174.792 851.83L173.907 852.297ZM170.924 857.035L170.039 857.502L178.406 873.362L179.291 872.896L180.175 872.429L171.808 856.569L170.924 857.035ZM179.291 872.896L179.714 873.801C186.286 870.729 193.847 869.818 201.286 871.646L201.524 870.675L201.763 869.704C193.862 867.762 185.835 868.732 178.867 871.99L179.291 872.896ZM201.524 870.675L202.478 870.976L207.919 853.749L206.966 853.447L206.012 853.146L200.571 870.374L201.524 870.675ZM206.966 853.447L207.392 852.543C206.183 851.973 205.258 851.324 204.696 850.727C204.091 850.084 204.113 849.74 204.136 849.666L203.182 849.365L202.229 849.064C201.866 850.215 202.498 851.309 203.239 852.098C204.025 852.933 205.185 853.713 206.539 854.352L206.966 853.447Z"/>
<path fill="#A9C7BA" d="M297.893 55.6989C299.77 54.5252 302.242 55.095 303.416 56.9714L307.667 63.7663C308.118 64.4885 308.311 65.2987 308.271 66.0895L308.882 65.7077L350.714 113.146L350.363 113.366C351.176 114.155 351.908 115.054 352.536 116.057L393.224 181.095C397.416 187.797 395.382 196.628 388.681 200.82C381.98 205.012 373.149 202.978 368.957 196.277L328.269 131.239C327.641 130.235 327.153 129.184 326.799 128.107L326.447 128.328L302.572 69.655L302.696 69.5768C301.968 69.2667 301.323 68.7391 300.872 68.0173L296.621 61.2224C295.447 59.346 296.017 56.8728 297.893 55.6989Z"/>
<mask fill="white" id="path-51-inside-2_127_256">
<path d="M378.682 190.82C371.981 195.012 363.15 192.978 358.958 186.277L318.27 121.239C317.642 120.235 317.154 119.184 316.8 118.107L316.448 118.327L292.573 59.655L298.883 55.7073L340.715 103.146L340.364 103.366C341.177 104.155 341.909 105.054 342.537 106.057L383.225 171.095C387.417 177.797 385.383 186.627 378.682 190.82Z"/>
</mask>
<path fill="#FBFDFB" d="M378.682 190.82C371.981 195.012 363.15 192.978 358.958 186.277L318.27 121.239C317.642 120.235 317.154 119.184 316.8 118.107L316.448 118.327L292.573 59.655L298.883 55.7073L340.715 103.146L340.364 103.366C341.177 104.155 341.909 105.054 342.537 106.057L383.225 171.095C387.417 177.797 385.383 186.627 378.682 190.82Z"/>
<path mask="url(#path-51-inside-2_127_256)" fill="#3D7B61" d="M378.682 190.82L380.273 193.363L380.273 193.363L378.682 190.82ZM358.958 186.277L356.414 187.868L356.414 187.868L358.958 186.277ZM318.27 121.239L315.726 122.83L315.726 122.83L318.27 121.239ZM316.8 118.107L319.65 117.171L318.455 113.533L315.209 115.564L316.8 118.107ZM316.448 118.327L313.669 119.458L315.014 122.763L318.039 120.871L316.448 118.327ZM292.573 59.655L290.981 57.1117L288.843 58.4494L289.794 60.7857L292.573 59.655ZM298.883 55.7073L301.133 53.7231L299.449 51.8141L297.292 53.164L298.883 55.7073ZM340.715 103.146L342.306 105.689L345.304 103.813L342.965 101.161L340.715 103.146ZM340.364 103.366L338.772 100.822L335.527 102.853L338.275 105.519L340.364 103.366ZM342.537 106.057L345.08 104.466L345.08 104.466L342.537 106.057ZM383.225 171.095L385.768 169.504L385.768 169.504L383.225 171.095ZM378.682 190.82L377.091 188.277C371.795 191.59 364.815 189.983 361.501 184.686L358.958 186.277L356.414 187.868C361.486 195.974 372.167 198.434 380.273 193.363L378.682 190.82ZM358.958 186.277L361.501 184.686L320.813 119.648L318.27 121.239L315.726 122.83L356.414 187.868L358.958 186.277ZM318.27 121.239L320.813 119.648C320.314 118.851 319.929 118.02 319.65 117.171L316.8 118.107L313.95 119.044C314.378 120.348 314.969 121.619 315.726 122.83L318.27 121.239ZM316.8 118.107L315.209 115.564L314.857 115.784L316.448 118.327L318.039 120.871L318.391 120.65L316.8 118.107ZM316.448 118.327L319.227 117.197L295.351 58.5242L292.573 59.655L289.794 60.7857L313.669 119.458L316.448 118.327ZM292.573 59.655L294.164 62.1983L300.474 58.2506L298.883 55.7073L297.292 53.164L290.981 57.1117L292.573 59.655ZM298.883 55.7073L296.633 57.6915L338.465 105.13L340.715 103.146L342.965 101.161L301.133 53.7231L298.883 55.7073ZM340.715 103.146L339.124 100.602L338.772 100.822L340.364 103.366L341.955 105.909L342.306 105.689L340.715 103.146ZM340.364 103.366L338.275 105.519C338.916 106.141 339.495 106.852 339.994 107.648L342.537 106.057L345.08 104.466C344.323 103.256 343.438 102.168 342.452 101.212L340.364 103.366ZM342.537 106.057L339.994 107.648L380.682 172.686L383.225 171.095L385.768 169.504L345.08 104.466L342.537 106.057ZM383.225 171.095L380.682 172.686C383.995 177.983 382.388 184.963 377.091 188.277L378.682 190.82L380.273 193.363C388.379 188.292 390.839 177.61 385.768 169.504L383.225 171.095Z"/>
<rect fill="#BC4C10" transform="rotate(147.97 372 174.741)" rx="2.86255" height="143.127" width="5.72509" y="174.741" x="372"/>
<rect fill="#5A5A5A" transform="rotate(147.97 299.793 57.1633)" rx="4.00757" height="16.0303" width="8.01513" y="57.1633" x="299.793"/>
<rect fill="#5A5A5A" transform="rotate(147.97 302.225 66.4473)" height="14.3127" width="2.29004" y="66.4473" x="302.225"/>
<path fill="#A9C7BA" d="M205.555 113.574C205.217 106.759 210.467 100.96 217.282 100.622L258.03 98.6003C264.845 98.2623 270.643 103.512 270.982 110.327C271.265 116.047 267.612 121.049 262.401 122.71C270.946 127.63 276.891 136.656 277.416 147.236L277.443 147.777C278.203 148.606 278.689 149.695 278.749 150.906L280.418 184.536C280.504 186.257 279.708 187.817 278.428 188.781C275.603 201.683 264.433 211.623 250.609 212.309L235.925 213.038C222.101 213.724 210 204.939 205.912 192.38C204.543 191.548 203.598 190.073 203.512 188.353L201.844 154.723C201.784 153.512 202.159 152.38 202.833 151.48L202.807 150.939C202.282 140.36 207.303 130.789 215.317 125.047C209.969 123.91 205.839 119.293 205.555 113.574Z"/>
<rect stroke-width="3" stroke="#3D7B61" fill="#FBFDFB" transform="rotate(-2.84115 190.493 115.039)" rx="28.5" height="90.6642" width="71.7015" y="115.039" x="190.493"/>
<rect stroke-width="3" stroke="#3D7B61" fill="#A9C7BA" transform="rotate(-2.84115 190.77 143.792)" rx="3.5" height="40.6716" width="74" y="143.792" x="190.77"/>
<rect stroke-width="3" stroke="#3D7B61" fill="#FBFDFB" transform="rotate(-2.84115 194.116 95.2978)" rx="10.8545" height="21.709" width="62.5075" y="95.2978" x="194.116"/>
<path fill="#A9C7BA" d="M360.582 1019.45C362.939 1020.53 364.076 1023.24 363.202 1025.68L362.918 1026.47C364.938 1027.69 365.837 1030.18 365.032 1032.43L321.231 1154.72C320.203 1157.59 316.868 1158.88 314.177 1157.45L233.625 1114.61L280.833 982.809L360.582 1019.45Z"/>
<path stroke-width="3" stroke="#3D7B61" fill="#A9C7BA" d="M351.689 1016.65C353.223 1017.47 353.926 1019.29 353.341 1020.92L309.54 1143.21C308.821 1145.22 306.486 1146.12 304.602 1145.12L225.196 1102.89L271.381 973.947L351.689 1016.65Z"/>
<path stroke-width="3" stroke="#3D7B61" fill="#FBFDFB" d="M349.676 1009.81C351.325 1010.57 352.122 1012.46 351.51 1014.17L307.687 1136.52C306.995 1138.45 304.796 1139.38 302.931 1138.52L225.222 1102.82L271.414 973.854L349.676 1009.81Z"/>
<path fill="#A9C7BA" d="M296.28 1036.26C299.4 1037.38 300.721 1041.65 299.231 1045.81C298.544 1047.73 297.376 1049.29 296.013 1050.3C298.843 1053.87 299.548 1059.91 297.411 1065.87C295.586 1070.97 292.126 1074.79 288.383 1076.39L284.154 1088.2L280.388 1086.85L283.847 1077.19C283.163 1077.14 282.488 1076.99 281.829 1076.76C280.866 1076.41 280 1075.89 279.24 1075.23L275.673 1085.19L271.907 1083.84L276.46 1071.13C275.093 1067.62 275.066 1063.02 276.699 1058.46C278.823 1052.53 283.16 1048.32 287.582 1047.33C287.157 1045.67 287.24 1043.71 287.934 1041.77C289.424 1037.61 293.161 1035.14 296.28 1036.26Z"/>
<path fill="#A9C7BA" d="M334.515 336.998L370.624 327.437L370.908 326.218L403.246 353.587L370.438 494.729L338.243 467.48L302.178 477.028L301.885 478.291L300.818 477.388L299.501 477.737L299.785 476.513L269.548 450.922L302.355 309.78L334.515 336.998Z"/>
<path stroke-width="3" stroke="#3D7B61" fill="#FBFDFB" d="M320.9 333.168L288.856 471.025L259.092 445.835L291.136 307.977L320.9 333.168Z"/>
<path stroke-width="3" stroke="#3D7B61" fill="#FBFDFB" d="M321.196 334.332L289.402 471.115L325.752 461.49L357.546 324.707L321.196 334.332Z"/>
<path stroke-width="3" stroke="#3D7B61" fill="#FBFDFB" d="M389.453 349.605L357.409 487.462L327.645 462.272L359.689 324.414L389.453 349.605Z"/>
<rect fill="#3D7B61" transform="rotate(47.6669 280.797 385.847)" height="3.91634" width="6.85359" y="385.847" x="280.797"/>
<rect fill="#3D7B61" transform="rotate(30.8167 297.036 402.321)" height="3.91634" width="6.85359" y="402.321" x="297.036"/>
<rect fill="#3D7B61" transform="rotate(0.291414 338.083 383.008)" height="3.91634" width="6.85359" y="383.008" x="338.083"/>
<rect fill="#3D7B61" transform="rotate(-36.5762 322.523 395.515)" height="3.91634" width="6.85359" y="395.515" x="322.523"/>
<rect fill="#3D7B61" transform="rotate(-36.5762 363.784 384.499)" height="3.91634" width="6.85359" y="384.499" x="363.784"/>
<rect fill="#3D7B61" transform="rotate(-32.4006 308.351 407.026)" height="3.91634" width="6.85359" y="407.026" x="308.351"/>
<rect fill="#3D7B61" transform="rotate(47.6669 288.769 394.87)" height="3.91634" width="6.85359" y="394.87" x="288.769"/>
<rect fill="#3D7B61" transform="rotate(32.0557 352.953 380.744)" height="3.91634" width="6.85359" y="380.744" x="352.953"/>
<rect fill="#BC4C10" transform="rotate(-34.2791 374.006 374.869)" rx="1.0909" height="10.909" width="2.1818" y="374.869" x="374.006"/>
<rect fill="#BC4C10" transform="rotate(-124.279 374.087 382.735)" rx="1.0909" height="10.909" width="2.1818" y="382.735" x="374.087"/>
</svg>